<svg width="92" height="63" viewBox="0 0 92 63" fill="none" xmlns="http://www.w3.org/2000/svg">
<path d="M15.4153 47.637C18.1267 45.9599 21.2429 44.7124 24.3349 43.6481C29.6675 41.6814 34.8974 39.7939 40.2299 37.8272C52.6343 33.2952 65.232 28.6968 78.3014 26.1236C82.2754 25.3684 85.621 23.7793 89.6012 23.6782C66.9253 35.4646 41.3551 43.303 15.4153 47.637Z" fill="#7CA661"/>
<path d="M10.596 49.2421C18.4282 45.8436 26.0246 42.1319 33.4879 38.0279C36.8721 36.1613 40.3589 34.2155 43.2835 31.631C46.4136 28.888 48.8906 25.4936 51.6821 22.5167C56.7152 17.2343 62.8851 13.1377 69.0428 9.13281C68.1201 15.4532 64.9123 20.8956 60.4411 25.415C55.8791 29.9217 50.4525 33.2804 44.9714 36.3512C41.8833 38.072 38.8073 39.701 35.5076 40.9251C33.5857 41.4994 15.1655 49.5961 10.596 49.2421Z" fill="#AEDC90"/>
<path d="M25.0506 42.556C25.0506 42.556 24.2842 44.8765 25.263 45.8523C25.263 45.8523 7.35044 52.9808 3.32722 51.3025C-0.6054 49.6368 1.81595 47.3593 4.34084 47.803C6.86573 48.2466 20.3039 44.9776 25.0506 42.556Z" fill="white"/>
</svg>
