<svg width="126" height="117" viewBox="0 0 126 117" fill="none" xmlns="http://www.w3.org/2000/svg">
<path d="M96.6198 44.9017C96.6198 44.9017 97.3544 37.8529 93.248 36.8617C89.2385 35.939 83.5344 35.1415 85.3453 33.629C87.1561 32.1164 85.9404 30.4492 85.9404 30.4492L89.6145 31.9432C89.6145 31.9432 83.7746 26.6412 84.4163 25.8456C85.058 25.05 86.0158 25.1389 86.0158 25.1389C86.0158 25.1389 85.2461 23.0521 85.2906 22.2753C85.3352 21.4986 88.7592 23.0363 88.7592 23.0363L88.7223 21.7611L91.1944 25.3447L92.127 24.7546C92.127 24.7546 96.0416 28.7696 95.8149 33.6792C95.8149 33.6792 98.4554 29.3731 92.6485 22.6984C92.6485 22.6984 90.1647 18.5188 91.1961 17.4842L92.7084 17.818L92.2353 14.3978C92.2353 14.3978 93.4683 15.1221 94.655 17.1361C95.8416 19.1502 97.2996 19.1517 97.2996 19.1517C97.2996 19.1517 92.4814 11.7062 92.6423 9.54214L94.4182 9.91532C94.4182 9.91532 93.1501 7.4029 93.6833 5.94274L95.5659 7.4934C95.5659 7.4934 95.8528 5.05103 96.6322 4.57309L98.2783 6.25052C98.2783 6.25052 98.8094 1.62955 99.6605 0.541016C99.6605 0.541016 101.733 3.25458 101.353 4.60254L102.982 3.54903L103.527 6.35869L106.049 3.95289C106.049 3.95289 106.396 7.65147 105.419 9.01833L107.507 7.62823C107.507 7.62823 106.362 16.8848 102.645 19.3284C102.645 19.3284 104.78 20.3224 107.928 13.877C107.928 13.877 109.973 12.7507 109.184 15.7934C108.479 18.8216 110.262 17.1429 110.262 17.1429C110.262 17.1429 109.751 23.9819 105.489 27.2896C101.228 30.5974 101.284 34.0905 101.284 34.0905C101.284 34.0905 104.268 30.8351 105.844 28.9364C107.42 27.0377 108.737 24.0736 108.737 24.0736L109.858 25.1594L112.397 21.8107C112.397 21.8107 113.454 21.4552 113.043 23.663C113.043 23.663 115.986 23.8322 115.441 24.6963C114.897 25.5605 112.599 27.2435 112.599 27.2435L114.511 28.4473C114.511 28.4473 112.524 32.5538 108.729 33.4731L111.961 34.3608L110.984 35.7276C110.984 35.7276 112.685 37.7373 111.322 38.3172C109.875 38.9117 104.01 36.6044 102.044 38.7421C100.148 40.7822 97.2422 45.5619 97.2422 45.5619L96.6198 44.9017Z" fill="#497C74"/>
<path d="M91.0212 57.8183C91.0212 57.8183 86.4845 54.6856 84.1728 57.3084C81.9443 59.9167 79.1562 63.8175 78.6779 61.9383C78.2829 60.0446 76.5345 60.3501 76.5345 60.3501L79.0109 58.2106C79.0109 58.2106 72.8035 60.5755 72.5014 59.7749C72.1993 58.9743 72.604 58.3062 72.604 58.3062C72.604 58.3062 70.7742 58.114 70.2069 57.7864C69.6396 57.4589 72.143 55.4853 72.143 55.4853L71.2156 55.05L74.8227 54.5903L74.7569 53.6631C74.7569 53.6631 79.3243 52.2674 82.8115 54.2181C82.8115 54.2181 80.6061 50.678 73.4441 52.4417C73.4441 52.4417 69.38 52.7253 69.0101 51.5099L69.8736 50.5056L67.1455 49.5316C67.1455 49.5316 68.1601 48.9276 70.1021 48.7589C72.0441 48.5902 72.6443 47.5466 72.6443 47.5466C72.6443 47.5466 65.2364 48.3292 63.7145 47.4004L64.7174 46.2011C64.7174 46.2011 62.3184 46.1937 61.4897 45.3144L63.3368 44.5649C63.3368 44.5649 61.6078 43.4164 61.5826 42.7381L63.4568 42.1545C63.4568 42.1545 60.2058 40.0772 59.7798 39.0422C59.7798 39.0422 62.5273 38.562 63.4122 39.2608L63.3211 37.6553L65.6485 38.2726L64.7713 35.5244C64.7713 35.5244 67.6931 36.6352 68.3127 37.807L68.057 35.7182C68.057 35.7182 74.406 39.9849 74.836 43.6647C74.836 43.6647 76.352 42.461 72.8473 37.7825C72.8473 37.7825 72.7988 35.9135 74.7757 37.5308C76.6694 39.1626 76.1775 37.2005 76.1775 37.2005C76.1775 37.2005 81.0201 40.109 81.8218 44.4919C82.6236 48.8747 85.2258 50.1267 85.2258 50.1267C85.2258 50.1267 83.9769 46.6754 83.1656 44.8544C82.4375 43.0189 80.7258 40.9285 80.7258 40.9285L81.934 40.4614L80.3927 37.3172C80.3927 37.3172 80.5069 36.4438 82.0559 37.5385C82.0559 37.5385 83.3395 35.4368 83.7946 36.1253C84.2496 36.8138 84.5459 39.1515 84.5459 39.1515L86.1858 38.1822C86.1858 38.1822 88.4765 41.1954 87.6188 44.3321L89.5956 42.2799L90.2288 43.5346C90.2288 43.5346 92.3664 42.9904 92.3199 44.2786C92.2735 45.5667 88.225 49.0905 89.0073 51.2579C89.7896 53.4253 91.6078 56.6918 91.6078 56.6918L91.0212 57.8183Z" fill="#497C74"/>
<path d="M96.5782 62.0245C96.5782 62.0245 100.946 58.3601 99.1122 55.5235C97.2788 52.6868 94.3534 48.9317 96.2526 49.0264C98.1518 49.1211 98.3802 47.3747 98.3802 47.3747L99.7277 50.3816C99.7277 50.3816 99.2532 43.8091 100.099 43.7465C100.945 43.684 101.456 44.192 101.456 44.192C101.456 44.192 102.198 42.4412 102.643 42.0221C103.088 41.6029 104.242 44.473 104.242 44.473L104.966 43.6639L104.357 47.2688L105.243 47.4552C105.243 47.4552 105.24 52.1488 102.359 54.9561C102.359 54.9561 106.37 53.8284 106.786 46.4176C106.786 46.4176 107.675 42.4226 108.964 42.4532L109.653 43.5274L111.326 41.1872C111.326 41.1872 111.599 42.3341 111.134 44.2071C110.67 46.0802 111.498 46.9593 111.498 46.9593C111.498 46.9593 112.871 39.6373 114.22 38.4629L115.033 39.7714C115.033 39.7714 115.693 37.5228 116.874 36.8898L117.116 38.8953C117.116 38.8953 118.688 37.5114 119.409 37.7268L119.471 39.6785C119.471 39.6785 122.392 37.1201 123.571 36.9994C123.571 36.9994 123.255 39.785 122.255 40.4718L123.848 40.7907L122.551 42.8092L125.449 42.7294C125.449 42.7294 123.54 45.1961 122.222 45.5119L124.245 45.8409C124.245 45.8409 118.292 50.8063 114.675 50.1584C114.675 50.1584 115.403 51.9937 120.958 49.8285C120.958 49.8285 122.828 50.2696 120.66 51.6724C118.491 53.0753 120.557 53.1409 120.557 53.1409C120.557 53.1409 116.313 57.0396 111.865 56.5372C107.429 56.1178 105.48 58.3357 105.48 58.3357C105.48 58.3357 109.114 58.0419 111.125 57.7757C113.137 57.5095 115.622 56.4778 115.622 56.4778L115.742 57.7367L119.156 57.1402C119.156 57.1402 119.986 57.507 118.457 58.6275C118.457 58.6275 120.127 60.4687 119.295 60.6142C118.476 60.8427 116.203 60.5573 116.203 60.5573L116.681 62.4362C116.681 62.4362 113.141 63.8229 110.388 62.1709L111.807 64.568L110.488 64.8838C110.488 64.8838 110.425 67.1134 109.151 66.6534C107.974 66.2618 105.732 61.4488 103.36 61.6072C100.988 61.7657 97.463 62.7231 97.463 62.7231L96.5782 62.0245Z" fill="#497C74"/>
<path d="M119.829 45.7459C119.259 45.9309 118.619 46.2134 117.966 46.413C117.077 46.7392 116.09 46.997 115.187 47.2402C116.999 45.2154 118.811 43.1906 120.526 41.0973C118.923 42.8293 117.238 44.5759 115.538 46.2394C115.72 45.7806 115.819 45.3363 115.988 44.7944C116.228 43.6421 116.385 42.5043 116.375 41.3957C116.218 42.5334 116.061 43.6712 115.641 44.7696C115.304 45.8534 114.8 46.9664 114.061 47.6932L113.782 48.0836C113.699 48.0982 113.713 48.1812 113.629 48.1958C111.846 49.8739 110.064 51.552 108.267 53.1471C108.323 52.9664 108.38 52.7858 108.436 52.6052C108.661 51.8826 108.802 51.1746 108.86 50.4812C109.06 49.0798 109.162 47.6099 109.265 46.14C109.079 47.6244 108.879 49.0259 108.597 50.4418C108.455 51.1498 108.23 51.8724 107.992 52.5119C107.74 53.0684 107.502 53.7079 107.139 54.1129C106.917 54.3226 106.694 54.5324 106.387 54.7567C104.508 56.3663 102.518 57.8245 100.514 59.1995C100.696 58.7407 100.781 58.2133 100.963 57.7544C101.217 56.6852 101.401 55.7135 101.572 54.6588C101.829 52.5639 102.087 50.4691 102.178 48.4034C102.004 50.4837 101.663 52.5931 101.308 54.6195C101.138 55.6742 100.87 56.6604 100.603 57.6466C100.378 58.3692 100.153 59.0917 99.8317 59.7458C99.4422 59.9847 99.0662 60.3066 98.6767 60.5455C97.2718 61.3889 95.9501 62.2177 94.5452 63.0611L92.2779 64.3968C92.6712 63.1324 93.0782 61.951 93.4715 60.6865C95.2697 54.9061 96.7908 49.0033 98.1452 43.1296C98.2867 42.4216 98.4417 41.7966 98.6664 41.0741C100.742 39.0886 102.734 37.1177 104.796 35.0492C105.827 34.0149 106.844 32.8976 107.875 31.8634C108.892 30.7461 109.826 29.6434 110.65 28.3891C109.813 29.5603 108.712 30.6922 107.681 31.7264C106.65 32.7607 105.536 33.8095 104.505 34.8438C102.639 36.5364 100.773 38.2291 98.9067 39.9218C99.2748 37.9784 99.5732 36.1327 99.8581 34.2039C100.03 32.6364 100.203 31.069 100.375 29.5015C101.866 28.1307 103.162 26.623 104.361 25.0469C105.631 23.3731 106.79 21.5478 107.491 19.5462C106.693 21.4793 105.437 23.2361 104.071 24.8414C102.914 26.1539 101.743 27.3834 100.393 28.5589C100.466 27.4357 100.54 26.3126 100.614 25.1894C100.761 22.943 100.811 20.6282 100.875 18.3964L101.014 18.2012C101.728 16.7954 102.357 15.4043 103.071 13.9985C103.379 13.2614 103.7 12.6073 104.008 11.8702C104.316 11.1331 104.541 10.4105 104.766 9.68798C104.541 10.4105 104.233 11.1476 103.828 11.8163C103.506 12.4704 103.115 13.222 102.71 13.8907C102.109 14.9352 101.509 15.9796 100.908 17.0241C100.908 17.0241 100.908 17.0241 100.894 16.9411C100.854 16.692 100.896 16.4283 100.856 16.1792C100.881 13.1855 100.726 10.1379 100.487 7.10481C100.532 10.0009 100.493 12.9116 100.454 15.8222C100.179 15.1871 99.9175 14.6349 99.559 14.0143C98.8555 12.8561 97.9853 11.727 97.0454 10.6956C97.902 11.7416 98.6191 12.9828 99.2393 14.1556C99.5145 14.7908 99.7897 15.4259 99.968 15.9926C100.16 16.6424 100.268 17.3067 100.197 17.9171L100.247 19.2748C100.143 21.2575 100.024 23.1571 99.9198 25.1398C99.8055 26.0139 99.7745 26.8734 99.6602 27.7474C99.5226 27.4298 99.3986 27.1953 99.2609 26.8777C98.8753 26.091 98.323 25.3335 97.8675 24.6444C96.8598 23.1977 95.7823 21.8487 94.635 20.5972C95.7125 21.9463 96.7203 23.3929 97.5614 24.8687C98.0304 25.6408 98.4025 26.3445 98.7881 27.1312C99.0905 27.9324 99.3928 28.7337 99.3482 29.5101L99.4006 30.3551C99.2708 31.6589 99.0441 32.8942 98.9143 34.198C98.6023 35.9607 98.2904 37.7234 97.9784 39.4861C97.7032 38.8509 97.3447 38.2303 96.9862 37.6097C96.3796 36.52 95.6063 35.4594 94.9299 34.4673C93.4803 32.4146 91.8776 30.4741 90.2749 28.5335C91.7943 30.4886 93.3272 32.5268 94.6102 34.6086C95.3001 35.6837 95.9067 36.7735 96.5133 37.8632C97.0095 38.8014 97.4358 39.8372 97.6955 40.9021C97.5541 41.6101 97.3429 42.4157 97.1181 43.1382C95.8218 48.3185 94.3317 53.3618 92.7583 58.4197C92.2738 58.0773 91.8726 57.7203 91.4579 57.2804C90.6556 56.5665 89.8669 55.9357 89.0781 55.3048C88.4618 53.1065 87.7486 50.8397 87.0489 48.6559C86.6923 47.5225 86.2388 46.3206 85.8822 45.1872C85.4423 44.0684 84.9888 42.8665 84.3957 41.8598C84.919 42.9641 85.3589 44.083 85.7291 45.2994C86.0857 46.4328 86.4559 47.6492 86.7292 48.7972C87.3048 50.7464 87.8107 52.7933 88.3029 54.757C87.3204 53.9892 86.2545 53.236 85.2022 52.5658C83.8456 51.6072 82.5027 50.7316 81.0763 49.8705C80.6519 48.3219 80.0472 46.7194 79.303 45.3121C78.5317 43.7387 77.6073 42.2775 76.4464 40.943C77.5239 42.2921 78.3786 43.8509 79.0666 45.4388C79.617 46.7092 80.0143 48.0917 80.4116 49.4742C79.8302 49.0634 79.1791 48.7501 78.5977 48.3393C76.7974 47.2874 74.9137 46.25 72.9602 45.3102L72.9467 45.2272C72.1734 44.1666 71.4137 43.189 70.6405 42.1285C70.2122 41.6054 69.7974 41.1655 69.3691 40.6425C68.9544 40.2025 68.5261 39.6795 68.0281 39.2541C68.5261 39.6795 68.8711 40.217 69.2994 40.7401C69.6444 41.2776 70.0727 41.8007 70.4176 42.3382C70.97 43.0958 71.4525 43.951 71.9215 44.7231C71.8382 44.7377 71.8246 44.6546 71.7413 44.6692C69.4138 43.5386 67.003 42.4225 64.6194 41.4725C66.6833 42.5638 68.8305 43.6405 70.8944 44.7318C70.3809 44.7361 69.9507 44.7259 69.4371 44.7302C68.2569 44.8511 67.1736 45.0404 66.0206 45.3273C67.1872 45.1234 68.2841 45.0171 69.3945 44.9939C70.5049 44.9706 71.6425 45.1135 72.5843 45.6322L72.9447 45.74C74.7315 46.7089 76.5319 47.7608 78.3322 48.8127C78.7198 49.0866 79.1074 49.3605 79.4814 49.5514C79.2179 49.512 79.0512 49.5411 78.8012 49.5848C78.0377 49.6329 77.3575 49.6663 76.6075 49.7974C75.1909 50.0449 73.691 50.3071 72.3015 50.7207C73.7181 50.4732 75.1347 50.2256 76.5785 50.1441C77.342 50.0961 78.0222 50.0626 78.716 50.1122C79.4097 50.1617 80.1868 50.1968 80.6713 50.5392L80.9484 50.6615C82.1945 51.4687 83.4407 52.2758 84.617 53.1805C85.5026 53.8799 86.3883 54.5792 87.2739 55.2785C86.7468 55.1998 86.1635 55.3017 85.5666 55.3206C84.5531 55.4123 83.4563 55.5186 82.4563 55.6934C80.3731 56.0574 78.2898 56.4215 76.2337 56.9516C78.3034 56.5045 80.4002 56.2235 82.497 55.9425C83.5105 55.8508 84.6074 55.7445 85.6345 55.7358C86.4949 55.7563 87.3553 55.7767 88.1596 55.9778C88.9619 56.6917 89.8475 57.391 90.5665 58.1194C91.1053 58.794 91.644 59.4685 92.113 60.2406C92.0433 60.3382 92.0704 60.5043 92.0006 60.6019C91.0182 63.5067 90.0222 66.3284 88.9293 69.0817C87.8364 71.8349 86.5769 74.6173 85.3037 77.3167L86.9801 78.134C88.2396 75.3516 89.4023 72.5008 90.4816 69.6645C90.7761 68.8443 91.0707 68.0242 91.2954 67.3016C93.9116 65.4779 96.6246 63.7226 99.3376 61.9674C99.6438 61.743 99.9499 61.5187 100.173 61.3089C102.394 61.2625 104.698 61.2014 106.919 61.155C108.112 61.1172 109.389 61.0648 110.57 60.944C111.75 60.8231 113.027 60.7708 114.263 60.4693C113.013 60.6877 111.82 60.7255 110.639 60.8463C109.446 60.8841 108.169 60.9365 106.961 60.8913C104.99 60.8941 102.923 60.8284 100.952 60.8312C103.095 59.2609 105.058 57.6367 106.994 55.8464C107.217 55.6367 107.44 55.4269 107.663 55.2171C109.287 55.1896 110.883 54.9959 112.467 54.7192C114.217 54.4134 115.939 53.9415 117.441 53.1666C115.842 53.873 114.106 54.2619 112.426 54.4701C111.079 54.6201 109.635 54.7016 108.261 54.6855C110.281 52.8806 112.189 50.9243 114.015 48.9825C114.085 48.8849 114.238 48.7727 114.308 48.6751L114.391 48.6606C115.6 48.193 116.809 47.7255 118.019 47.2579C118.575 46.9899 119.214 46.7073 119.77 46.4393C120.327 46.1713 120.966 45.8887 121.509 45.5377C121.038 45.2783 120.468 45.4633 119.829 45.7459Z" fill="#579485"/>
<path d="M53.3182 54.6561C53.0973 54.3534 52.82 54.2314 52.5292 54.0264C51.7807 53.6457 51.382 52.7769 51.4139 51.9178C51.4004 51.8348 51.4703 51.7372 51.4434 51.5712C51.5575 48.0518 49.5993 44.9817 47.1551 44.728C46.8913 44.6889 46.544 44.6645 46.2937 44.7085C45.7931 44.7964 45.1686 44.65 44.7539 44.2107C43.1085 42.5365 41.0275 41.8777 39.2594 42.6148C37.4913 43.352 36.5097 45.2313 36.4704 47.628C36.4815 48.2236 36.1453 48.7947 35.6851 49.1315C35.4618 49.3414 35.2385 49.5513 35.0152 49.7612C33.4495 51.7431 34.1133 55.2966 36.6581 57.7517C36.755 57.8201 36.8519 57.8884 36.8654 57.9714C37.474 58.5473 37.7893 59.4308 37.4936 60.2509C37.3672 60.5291 37.3378 60.8757 37.3083 61.2223C37.3414 63.0088 39.1267 64.4877 41.1132 64.5657C41.9745 64.5852 42.712 64.3704 43.339 64.0042C43.966 63.6381 44.7439 63.6722 45.3389 64.1652C46.626 65.2195 48.2089 65.4537 48.2089 65.4537C48.2089 65.4537 49.1316 64.2675 49.3488 62.437C49.4776 61.6462 49.9807 61.0458 50.7316 60.914C51.4825 60.7821 52.193 60.4014 52.7795 59.7863C54.3292 58.234 54.4789 55.9886 53.3182 54.6561Z" fill="#95BD59"/>
<path d="M46.7657 59.0784C45.8122 56.9346 45.8394 57.101 45.604 56.7142L46.7284 54.1226C46.9113 53.6629 46.2712 53.4323 46.0883 53.892L45.2167 55.9262C44.1659 53.7137 43.5568 52.6221 42.3523 50.5221C42.9848 52.8074 43.2728 54.0406 44.0026 56.3945C42.444 55.8106 41.7358 55.1641 41.4828 55.7215C41.2299 56.279 42.1775 56.2849 44.2361 57.2949C44.4015 57.7794 44.3743 57.6131 45.0768 59.8006L43.3237 59.0796C42.8645 58.903 42.6252 59.5436 43.0844 59.7202L45.394 60.6865C46.801 64.548 47.1318 65.517 49.0427 68.7773L50.0058 68.3527C49.7158 67.6332 50.1225 66.9634 46.9992 59.9788C47.7171 58.057 48.3883 57.4266 47.8318 57.1814C47.7346 57.1128 47.3416 57.8658 46.7657 59.0784Z" fill="#B2C762"/>
<path d="M20.927 58.9073C20.5105 58.9804 20.1908 59.1218 19.871 59.2631C19.0919 59.7408 17.955 59.5995 17.2641 59.0391C17.1673 58.9709 17.0705 58.9027 16.9738 58.8344C13.7935 56.6659 9.67365 56.6223 7.80417 58.8253C7.59467 59.1178 7.38519 59.4102 7.25901 59.688C7.00663 60.2436 6.47738 60.6774 5.89425 60.7798C3.32529 61.3161 1.348 62.8563 0.921638 64.9764C0.481801 67.0136 1.67867 69.1044 3.8911 70.5907C4.47177 71 4.73268 71.5507 4.75717 72.2282C4.72776 72.5742 4.86496 72.891 4.91886 73.2224C5.78003 75.8834 9.61568 77.3403 13.4073 76.419C13.4906 76.4043 13.6572 76.3751 13.7405 76.3605C14.6434 76.1167 15.7104 76.3554 16.2616 77.1108C16.4821 77.413 16.7725 77.6177 17.0628 77.8223C18.7644 78.8018 21.2096 78.0316 22.5364 76.1795C23.0951 75.3997 23.3903 74.5809 23.3523 73.8206C23.3842 72.9628 23.9563 72.2659 24.7759 72.0368C26.5682 71.4664 27.7957 70.0578 27.7957 70.0578C27.7957 70.0578 27.193 68.4593 25.7009 67.1874C25.01 66.6269 24.792 65.813 25.0872 64.9942C25.3959 64.2583 25.4977 63.303 25.2661 62.4063C24.8889 60.0864 22.9263 58.5562 20.927 58.9073Z" fill="#95BD59"/>
<path d="M20.9634 67.7136C18.431 67.3898 18.5973 67.3608 17.9883 67.2969C16.4592 65.2665 16.2968 64.2739 15.6724 64.6381C15.1311 64.9878 16.001 65.6017 16.9503 67.2227C13.463 66.8103 11.9126 66.7406 10.196 66.6998C11.7309 67.1977 13.2658 67.6955 16.6681 68.6333C15.2241 69.7361 14.1571 70.0074 14.5012 70.5429C14.8453 71.0784 15.3885 70.2179 17.6501 68.8873C18.1895 69.0484 18.0097 68.9947 20.4995 69.5812C19.2914 70.5578 18.2939 70.7318 18.638 71.2674C18.9821 71.8029 19.6084 70.9278 21.5511 69.738C28.9105 71.3465 28.4137 70.9228 31.3616 71.174L31.6013 70.0262C30.9788 69.8796 30.1649 69.0857 21.9183 67.8022C20.5129 66.0055 20.3505 65.0129 19.8092 65.3626C19.3781 65.8632 20.2346 66.3944 20.9634 67.7136Z" fill="#B2C762"/>
<path d="M37.6003 58.0812C41.6183 62.7556 40.6193 70.2696 35.2908 74.8706C29.9622 79.4716 22.3351 79.4392 18.3171 74.7648C14.2992 70.0904 15.2981 62.5764 20.6267 57.9754C25.9553 53.3744 33.5823 53.4069 37.6003 58.0812Z" fill="#EADFD1"/>
<path d="M33.765 73.1891C37.3974 70.0219 38.8239 65.6939 36.9513 63.5222C35.0787 61.3505 30.616 62.1575 26.9836 65.3246C23.3512 68.4918 21.9247 72.8198 23.7973 74.9915C25.67 77.1632 30.1327 76.3562 33.765 73.1891Z" fill="#D1C3B4"/>
<path d="M38.8377 72.4278C41.3806 75.4001 40.8031 77.6364 39.0898 79.217C37.2797 80.7292 35.016 81.0394 32.4731 78.0671C29.9302 75.0949 27.9784 69.9694 29.7885 68.4573C31.4049 66.8081 36.1979 69.3871 38.8377 72.4278Z" fill="#E7E2D5"/>
<path d="M98.8635 55.0549C98.217 61.0557 92.1689 65.4405 85.3772 64.7502C78.5855 64.0599 73.5865 58.6192 74.3162 52.6039C74.9627 46.6032 81.0108 42.2183 87.8025 42.9086C94.5941 43.5989 99.5932 49.0396 98.8635 55.0549Z" fill="#EADFD1"/>
<path d="M94.6724 58.1871C94.3572 60.9694 90.3045 62.8706 85.6926 62.3979C80.9976 61.9397 77.4884 59.3141 77.7901 56.4489C78.1053 53.6666 82.158 51.7654 86.7698 52.2381C91.4784 52.7792 94.9876 55.4048 94.6724 58.1871Z" fill="#D1C3B4"/>
<path d="M89.5703 65.5061C89.167 69.3367 87.1207 70.4634 84.8572 70.2606C82.5936 70.0579 80.8906 68.5608 81.2939 64.7301C81.6973 60.8995 84.174 56.1084 86.4376 56.3112C88.7011 56.5139 89.9737 61.6755 89.5703 65.5061Z" fill="#E7E2D5"/>
<path d="M109.398 56.8614C110.745 56.1992 111.471 54.8776 111.324 53.4526C111.311 53.3696 111.284 53.2037 111.27 53.1207C111.072 50.3391 109.917 47.981 107.731 46.6563C103.442 43.9924 96.7756 46.6935 92.9673 52.7353C89.4939 58.2065 89.498 64.5208 92.7451 67.6228C93.353 68.1992 94.2824 68.1221 94.8671 67.5079C99.5293 63.0236 104.314 59.286 109.398 56.8614Z" fill="#DB5955"/>
<path d="M98.945 59.4618C101.139 56.0935 104.409 54.0705 107.336 54.1531C107.85 54.1482 108.239 53.9093 108.519 53.5193C108.798 53.1294 108.717 52.6322 108.47 52.1643C108.029 51.56 107.504 50.9702 106.84 50.5755C103.603 48.5871 98.71 50.6395 95.8442 55.1484C93.7331 58.502 93.3127 62.2406 94.577 64.7458C94.8245 65.2137 95.3917 65.5402 95.9749 65.4378C96.5581 65.3354 97.0041 64.9162 97.0764 64.3069C97.3337 62.7276 97.9243 61.0898 98.945 59.4618Z" fill="#BC1B2C"/>
<path d="M105.768 52.1203C105.725 52.3841 105.446 52.7747 105.237 53.0677C105.167 53.1653 105.083 53.1799 105 53.1945C104.917 53.2091 104.903 53.126 104.806 53.0575C104.752 52.7251 104.67 52.2267 104.713 51.9628C104.825 51.6014 105.118 51.2938 105.382 51.3332C105.729 51.358 105.881 51.7588 105.768 52.1203Z" fill="#E7C644"/>
<path d="M102.713 52.7311C102.838 52.9659 102.849 53.5622 102.834 53.9923C102.847 54.0754 102.778 54.1731 102.694 54.1877C102.611 54.2023 102.527 54.2168 102.43 54.1483C102.125 53.8596 101.71 53.4192 101.586 53.1845C101.435 52.7835 101.52 52.2557 101.84 52.1143C102.09 52.0705 102.479 52.3447 102.713 52.7311Z" fill="#E7C644"/>
<path d="M100.086 54.3828C100.293 54.6029 100.472 55.1698 100.54 55.5851C100.553 55.6681 100.567 55.7512 100.497 55.8488C100.427 55.9465 100.344 55.961 100.247 55.8925C99.8726 55.7016 99.3181 55.4568 99.1107 55.2367C98.7927 54.8651 98.7946 54.3522 99.0176 54.1423C99.3239 53.9179 99.7679 54.0112 100.086 54.3828Z" fill="#E7C644"/>
<path d="M97.8586 56.3944C98.0522 56.5313 98.4802 57.054 98.7146 57.4398C98.7281 57.5228 98.7417 57.6058 98.672 57.7033C98.6023 57.8009 98.519 57.8154 98.4357 57.8299C97.9922 57.7367 97.3822 57.6727 97.175 57.4528C96.7877 57.1791 96.6366 56.7787 96.8457 56.4861C96.9581 56.125 97.4713 56.1207 97.8586 56.3944Z" fill="#E7C644"/>
<path d="M96.2955 59.3191C96.4755 59.3729 96.8761 59.7293 97.0831 59.9489C97.1799 60.0173 97.1934 60.1002 97.1238 60.1976C97.1373 60.2805 97.0541 60.2951 96.9709 60.3096C96.6381 60.3678 96.1252 60.3721 95.9317 60.2354C95.5718 60.1277 95.3376 59.7423 95.477 59.5474C95.6027 59.2696 95.922 59.1285 96.2955 59.3191Z" fill="#E7C644"/>
<path d="M95.4934 62.1984C95.6733 62.2522 95.9499 62.3743 96.1433 62.5109C96.1433 62.5109 96.24 62.5792 96.1704 62.6765C96.1839 62.7594 96.1008 62.7739 96.1008 62.7739C95.8513 62.8175 95.5321 62.9584 95.3522 62.9046C95.0892 62.8654 94.8822 62.6459 94.9383 62.4658C94.9944 62.2856 95.2304 62.1592 95.4934 62.1984Z" fill="#E7C644"/>
<path d="M61.7634 53.4956C60.2342 50.9478 57.356 49.574 54.0578 49.2974C53.7945 49.2581 53.4481 49.2333 53.1848 49.194C51.7719 48.9291 50.4247 49.591 49.8654 50.883C47.4887 56.246 42.9055 62.2504 36.6016 68.7262C35.7945 69.5496 35.8313 70.8228 36.6462 71.6187C40.5001 75.2957 47.9307 75.1915 54.3779 71.1645C61.6729 66.5629 64.9186 58.6595 61.7634 53.4956Z" fill="#DB5955"/>
<path d="M46.6661 64.3199C50.7835 61.723 53.146 57.8158 53.0934 54.3326C53.0823 53.7383 53.4179 53.1683 53.8907 52.9149C54.3634 52.6616 55.0431 52.6274 55.5268 52.9684C56.2873 53.4312 56.9082 54.0888 57.376 54.8585C59.7984 58.6923 57.3294 64.5774 51.8905 68.0025C47.8429 70.5019 43.3753 70.9455 40.3038 69.4404C39.6535 69.1286 39.3792 68.4953 39.438 67.8035C39.5801 67.0971 40.0957 66.5807 40.7754 66.5466C42.7043 66.2931 44.7189 65.5135 46.6661 64.3199Z" fill="#BC1B2C"/>
<path d="M55.4677 56.0488C55.2182 56.0924 54.6768 56.4424 54.2881 56.6806C54.205 56.6952 54.1489 56.8753 54.1624 56.9581C54.176 57.0409 54.2727 57.1092 54.3693 57.1774C54.8122 57.2704 55.3382 57.3489 55.6708 57.2908C56.1697 57.2037 56.4482 56.8144 56.394 56.4832C56.423 56.1375 55.9666 55.9617 55.4677 56.0488Z" fill="#E7C644"/>
<path d="M54.7365 59.8558C54.4597 59.7335 53.6836 59.6986 53.1707 59.7029C53.0875 59.7174 52.9211 59.7465 52.9482 59.9124C52.9753 60.0782 52.9056 60.1757 53.0024 60.2441C53.3198 60.6151 53.8308 61.1228 54.1908 61.2305C54.7443 61.475 55.2301 61.3048 55.4255 60.9295C55.5378 60.5687 55.29 60.1002 54.7365 59.8558Z" fill="#E7C644"/>
<path d="M52.7872 63.0157C52.4966 62.8103 51.8593 62.5802 51.3188 62.4185C51.2219 62.35 51.0689 62.4622 50.9856 62.4767C50.9023 62.4913 50.9294 62.6573 50.9566 62.8233C51.2045 63.2923 51.4796 63.9272 51.7702 64.1326C52.1712 64.4894 52.7814 64.5536 53.0739 64.2463C53.3664 63.939 53.1882 63.3725 52.7872 63.0157Z" fill="#E7C644"/>
<path d="M50.326 65.6651C50.1048 65.3619 49.5229 64.9508 49.135 64.6768C49.038 64.6083 48.9546 64.6228 48.7878 64.652C48.718 64.7496 48.6482 64.8473 48.6618 64.9304C48.7432 65.4289 48.8655 66.1767 49.0866 66.4799C49.4183 66.9347 49.973 67.1796 50.2795 66.9551C50.6693 66.7161 50.6577 66.1199 50.326 65.6651Z" fill="#E7C644"/>
<path d="M46.8683 67.4581C46.7441 67.2234 46.4122 66.7684 46.1075 66.4797C46.0105 66.4111 45.927 66.4257 45.8436 66.4403C45.7601 66.4548 45.6902 66.5525 45.7038 66.6357C45.6883 67.0658 45.6165 67.6767 45.7408 67.9115C45.8922 68.3125 46.2803 68.5866 46.6141 68.5283C46.9344 68.3869 47.0333 67.9422 46.8683 67.4581Z" fill="#E7C644"/>
<path d="M43.4513 68.4734C43.4241 68.3072 43.1893 67.9208 43.0651 67.686C43.0515 67.6029 42.968 67.6175 42.8845 67.6321C42.8011 67.6466 42.8011 67.6467 42.7312 67.7443C42.6885 68.0083 42.5896 68.453 42.6167 68.6192C42.6711 68.9517 42.8788 69.1718 43.1291 69.1281C43.3659 69.0013 43.4921 68.7228 43.4513 68.4734Z" fill="#E7C644"/>
<path d="M79.8583 61.9381C79.8501 55.1992 74.36 49.8096 67.596 49.9001C60.8319 49.9906 55.3552 55.5269 55.3634 62.2658C55.3717 69.0046 60.8617 74.3942 67.6258 74.3037C74.3899 74.2132 79.8665 68.6769 79.8583 61.9381Z" fill="#6EAC69"/>
<path d="M78.5747 62.7099C78.9936 56.5827 74.4278 51.3326 68.3768 50.9835C62.3257 50.6344 57.0807 55.3185 56.6618 61.4458C56.2429 67.573 60.8087 72.8231 66.8597 73.1722C72.9108 73.5213 78.1558 68.8372 78.5747 62.7099Z" fill="#E7FFA8"/>
<path d="M72.6476 61.2194C73.095 63.958 71.2127 66.5917 68.4646 67.072C65.7166 67.5523 63.1021 65.7046 62.6546 62.9659C62.2072 60.2273 64.0895 57.5937 66.8376 57.1134C69.5856 56.6331 72.2001 58.4808 72.6476 61.2194Z" fill="#B4D16F"/>
<path d="M67.4675 65.1241C67.4131 64.7917 67.5684 64.1662 67.6674 63.7214C67.6538 63.6383 67.8071 63.526 67.8905 63.5115C67.974 63.4969 68.071 63.5654 68.1681 63.634C68.403 64.0204 68.7485 64.5585 68.8028 64.8909C68.8843 65.3896 68.6185 65.8635 68.2846 65.9218C67.8673 65.9947 67.5626 65.7059 67.4675 65.1241Z" fill="#E7FFA8"/>
<path d="M66.5134 59.378C66.5677 59.7105 66.9132 60.2485 67.1481 60.635C67.1617 60.7181 67.3422 60.772 67.4257 60.7575C67.5091 60.7429 67.579 60.6452 67.6488 60.5475C67.7478 60.1028 67.9031 59.4773 67.8487 59.1448C67.7672 58.6461 67.3654 58.2889 67.0316 58.3472C66.6143 58.4201 66.4319 58.8794 66.5134 59.378Z" fill="#E7FFA8"/>
<path d="M69.6539 64.403C69.3634 64.1977 69.0187 63.6605 68.7844 63.2746C68.7708 63.1916 68.7573 63.1086 68.827 63.0111C68.8967 62.9136 68.98 62.899 69.0632 62.8844C69.5067 62.9776 70.1303 63.1247 70.4208 63.33C70.8082 63.6038 70.9728 64.0871 70.7636 64.3798C70.5545 64.6724 70.0413 64.6768 69.6539 64.403Z" fill="#E7FFA8"/>
<path d="M64.9093 61.022C65.1998 61.2273 65.8233 61.3744 66.2668 61.4676C66.35 61.453 66.4333 61.4385 66.503 61.341C66.5727 61.2434 66.5592 61.1605 66.5456 61.0775C66.3113 60.6917 65.9666 60.1545 65.6761 59.9492C65.2888 59.6755 64.7757 59.6798 64.5665 59.9724C64.2606 60.1966 64.4252 60.6799 64.9093 61.022Z" fill="#E7FFA8"/>
<path d="M70.6782 62.3389C70.3455 62.397 69.7228 62.2503 69.28 62.1573C69.1969 62.1718 69.0866 62.0207 69.0731 61.9379C69.0596 61.8551 69.1292 61.7578 69.1988 61.6605C69.5875 61.4223 70.1289 61.0722 70.4615 61.0142C70.9604 60.927 71.4304 61.1856 71.4845 61.5168C71.5387 61.848 71.1771 62.2518 70.6782 62.3389Z" fill="#E7FFA8"/>
<path d="M64.8684 63.338C65.201 63.2799 65.7425 62.9299 66.1312 62.6917C66.2143 62.6771 66.2704 62.497 66.2569 62.4142C66.2433 62.3314 66.1466 62.2631 66.0499 62.1949C65.6071 62.1019 64.9844 61.9551 64.6518 62.0132C64.1529 62.1003 63.7913 62.5042 63.8454 62.8353C63.8996 63.1665 64.3695 63.4251 64.8684 63.338Z" fill="#E7FFA8"/>
<path d="M69.8924 60.1628C69.6832 60.4554 69.141 60.8062 68.7518 61.045C68.6685 61.0595 68.5852 61.0741 68.4884 61.0056C68.3916 60.9372 68.378 60.8542 68.3644 60.7712C68.4632 60.3272 68.6181 59.7027 68.8272 59.41C69.1061 59.0199 69.5922 58.8496 69.8827 59.0549C70.1596 59.1772 70.2409 59.6751 69.8924 60.1628Z" fill="#E7FFA8"/>
<path d="M66.5028 64.9422C66.7119 64.6495 66.8668 64.025 66.9656 63.5809C66.952 63.4979 66.9384 63.4149 66.8416 63.3465C66.7448 63.278 66.6615 63.2926 66.5782 63.3072C66.189 63.5459 65.6467 63.8968 65.4376 64.1894C65.1587 64.5796 65.1568 65.092 65.4473 65.2973C65.7378 65.5026 66.2239 65.3323 66.5028 64.9422Z" fill="#E7FFA8"/>
<path d="M45.6318 116.355L88.1595 108.982C90.4022 108.593 92.5356 107.541 94.2411 105.966C106.402 94.7297 112.942 77.8994 110.336 60.522L9.16616 78.0609C12.3535 95.3375 23.9209 109.029 38.9218 115.556C41.0371 116.469 43.3891 116.744 45.6318 116.355Z" fill="white"/>
<path d="M110.763 70.8501C110.793 69.9994 110.822 69.1487 110.838 68.2158L11.0907 85.3735C11.3931 86.1671 11.7092 87.0429 12.0117 87.8365L110.763 70.8501Z" fill="#ABE0E3"/>
<path d="M106.314 89.205C108.009 85.5164 109.248 81.6518 109.961 77.7081L15.0072 94.1026C17.0461 97.6559 19.4455 100.807 22.1496 103.736L106.314 89.205Z" fill="#ABE0E3"/>
</svg>
